<svg width="174" height="240" viewBox="0 0 174 240" fill="none" xmlns="http://www.w3.org/2000/svg">
<g filter="url(#filter0_d_617_241)">
<path d="M121.5 173.5C147.994 173.5 169.5 152.696 169.5 127C169.5 101.304 147.994 80.5 121.5 80.5C95.0056 80.5 73.5 101.304 73.5 127C73.5 152.696 95.0056 173.5 121.5 173.5Z" stroke="#155E63" shape-rendering="crispEdges"/>
</g>
<path d="M91.3347 116.24C92.6681 116.133 94.1081 116.067 95.6547 116.04C97.2014 116.013 98.6547 116 100.015 116H104.375C104.508 116 104.601 116.053 104.655 116.16C104.708 116.24 104.708 116.347 104.655 116.48L92.6547 138.64C92.6014 138.747 92.5081 138.693 92.3747 138.48C92.2681 138.267 92.2681 138.16 92.3747 138.16H96.3747C97.7347 138.16 99.1614 138.147 100.655 138.12C102.175 138.067 103.588 137.987 104.895 137.88L104.975 138.52C103.615 138.627 102.175 138.707 100.655 138.76C99.1614 138.787 97.7347 138.8 96.3747 138.8H92.3747C92.2681 138.8 92.1747 138.747 92.0947 138.64C92.0414 138.533 92.0414 138.427 92.0947 138.32L104.095 116.16C104.148 116.053 104.241 116.107 104.375 116.32C104.508 116.533 104.508 116.64 104.375 116.64H100.015C98.6547 116.64 97.2014 116.653 95.6547 116.68C94.1081 116.707 92.6947 116.773 91.4147 116.88L91.3347 116.24ZM88.6147 119.84L91.0947 116.36C91.1481 116.307 91.1747 116.373 91.1747 116.56C91.2014 116.747 91.1881 116.813 91.1347 116.76L88.6547 114L89.1347 113.6L91.6147 116.36C91.6681 116.387 91.6947 116.453 91.6947 116.56C91.7214 116.64 91.7081 116.707 91.6547 116.76L89.1747 120.24L88.6147 119.84ZM108.455 134.56L105.175 138.4C105.121 138.453 105.095 138.387 105.095 138.2C105.095 138.013 105.121 137.947 105.175 138L107.655 140.8L107.175 141.2L104.695 138.4C104.641 138.347 104.615 138.28 104.615 138.2C104.615 138.12 104.641 138.053 104.695 138L107.975 134.16L108.455 134.56ZM87.6547 140.72L92.2147 138.2L96.8147 135.72L97.1347 136.28L92.5347 138.76L87.9747 141.28L87.6547 140.72ZM109.095 114.08L104.535 116.6L99.9347 119.12L99.6147 118.56L104.215 116.04L108.775 113.52L109.095 114.08ZM108.935 113.48C109.068 113.48 109.161 113.533 109.215 113.64C109.268 113.72 109.268 113.827 109.215 113.96L97.2547 136.16L96.9747 135.68C99.5081 135.733 101.481 135.707 102.895 135.6C104.308 135.493 105.388 135.32 106.135 135.08C106.908 134.813 107.535 134.493 108.015 134.12C108.148 134.013 108.268 134 108.375 134.08C108.508 134.16 108.561 134.267 108.535 134.4L107.735 141.04C107.708 141.12 107.668 141.187 107.615 141.24C107.561 141.293 107.495 141.32 107.415 141.32H87.8147C87.7081 141.32 87.6147 141.267 87.5347 141.16C87.4814 141.053 87.4814 140.947 87.5347 140.84L99.4947 118.68L99.7747 119.16C97.8547 119.107 96.2681 119.107 95.0147 119.16C93.7614 119.213 92.7614 119.293 92.0147 119.4C91.2681 119.507 90.6681 119.64 90.2147 119.8C89.7614 119.96 89.3747 120.133 89.0547 120.32C88.9481 120.373 88.8414 120.373 88.7347 120.32C88.6281 120.24 88.5747 120.147 88.5747 120.04V113.8C88.5747 113.72 88.6014 113.653 88.6547 113.6C88.7347 113.52 88.8147 113.48 88.8947 113.48H108.935ZM108.935 114.12H88.8947L89.2147 113.8V120.04L88.7347 119.76C89.0814 119.573 89.4814 119.4 89.9347 119.24C90.4147 119.08 91.0414 118.933 91.8147 118.8C92.6147 118.667 93.6414 118.573 94.8947 118.52C96.1747 118.467 97.8014 118.467 99.7747 118.52C99.9081 118.52 100.001 118.573 100.055 118.68C100.108 118.787 100.108 118.893 100.055 119L88.0947 141.16L87.8147 140.68H107.415L107.095 140.96L107.895 134.32L108.415 134.6C108.015 134.92 107.561 135.2 107.055 135.44C106.548 135.653 105.881 135.84 105.055 136C104.228 136.133 103.161 136.227 101.855 136.28C100.575 136.333 98.9481 136.347 96.9747 136.32C96.8681 136.32 96.7747 136.267 96.6947 136.16C96.6414 136.053 96.6414 135.947 96.6947 135.84L108.655 113.64L108.935 114.12ZM112.505 141.025C112.039 141.025 111.664 140.85 111.38 140.5C111.097 140.15 110.889 139.7 110.755 139.15C110.639 138.6 110.58 138.042 110.58 137.475C110.58 136.642 110.689 135.825 110.905 135.025C111.139 134.208 111.472 133.533 111.905 133C112.355 132.467 112.905 132.2 113.555 132.2C114.489 132.2 115.014 132.908 115.13 134.325L115.355 132.275C115.405 132.292 115.48 132.3 115.58 132.3C115.897 132.3 116.155 132.117 116.355 131.75C116.372 131.683 116.405 131.65 116.455 131.65C116.522 131.65 116.564 131.7 116.58 131.8L116.055 136.25C115.955 137.1 115.905 137.925 115.905 138.725C115.905 139.358 115.947 139.833 116.03 140.15C116.13 140.467 116.305 140.625 116.555 140.625C116.839 140.625 117.097 140.5 117.33 140.25C117.564 139.983 117.772 139.65 117.955 139.25C118.139 138.833 118.297 138.4 118.43 137.95C118.58 137.5 118.689 137.083 118.755 136.7C118.789 136.517 118.847 136.425 118.93 136.425C119.03 136.425 119.072 136.517 119.055 136.7C118.922 137.383 118.755 138.058 118.555 138.725C118.355 139.375 118.08 139.917 117.73 140.35C117.38 140.767 116.922 140.975 116.355 140.975C115.955 140.975 115.639 140.825 115.405 140.525C115.189 140.208 115.039 139.825 114.955 139.375C114.872 138.908 114.83 138.45 114.83 138C114.347 139.833 113.689 140.833 112.855 141C112.789 141.017 112.73 141.025 112.68 141.025C112.63 141.025 112.572 141.025 112.505 141.025ZM112.73 140.7C113.097 140.65 113.414 140.4 113.68 139.95C113.964 139.5 114.197 138.967 114.38 138.35C114.58 137.717 114.722 137.117 114.805 136.55C114.855 136.2 114.88 135.817 114.88 135.4C114.88 134.933 114.839 134.483 114.755 134.05C114.689 133.6 114.572 133.233 114.405 132.95C114.239 132.65 114.005 132.5 113.705 132.5C113.422 132.5 113.155 132.675 112.905 133.025C112.672 133.375 112.464 133.825 112.28 134.375C112.114 134.908 111.98 135.467 111.88 136.05C111.78 136.617 111.73 137.125 111.73 137.575C111.73 138.025 111.764 138.5 111.83 139C111.897 139.5 112.005 139.917 112.155 140.25C112.305 140.583 112.497 140.733 112.73 140.7ZM118.709 141.475C118.642 141.475 118.609 141.417 118.609 141.3C118.609 140.25 118.642 139.092 118.709 137.825C118.776 136.558 118.892 135.275 119.059 133.975C119.226 132.658 119.434 131.4 119.684 130.2C119.951 129 120.267 127.925 120.634 126.975C121.001 126.025 121.417 125.275 121.884 124.725C122.351 124.158 122.876 123.875 123.459 123.875C124.359 123.875 124.809 124.575 124.809 125.975C124.809 126.842 124.609 127.708 124.209 128.575C123.809 129.425 123.267 130.183 122.584 130.85C121.901 131.517 121.126 132.008 120.259 132.325C120.226 132.525 120.176 132.792 120.109 133.125C119.992 133.808 119.909 134.4 119.859 134.9C119.809 135.4 119.784 135.817 119.784 136.15C120.467 133.35 121.342 131.95 122.409 131.95C122.976 131.95 123.359 132.133 123.559 132.5C123.759 132.867 123.859 133.325 123.859 133.875C123.859 134.308 123.817 134.775 123.734 135.275C123.667 135.758 123.592 136.242 123.509 136.725C123.359 137.492 123.251 138.133 123.184 138.65C123.117 139.167 123.084 139.592 123.084 139.925C123.084 140.342 123.126 140.625 123.209 140.775C123.309 140.925 123.434 141 123.584 141C124.101 141 124.642 140.333 125.209 139C125.376 138.617 125.517 138.208 125.634 137.775C125.767 137.325 125.859 136.967 125.909 136.7C125.926 136.583 125.984 136.525 126.084 136.525C126.184 136.525 126.226 136.583 126.209 136.7C126.092 137.2 125.967 137.658 125.834 138.075C125.717 138.475 125.592 138.842 125.459 139.175C125.176 139.842 124.859 140.375 124.509 140.775C124.176 141.175 123.801 141.375 123.384 141.375C122.967 141.375 122.626 141.225 122.359 140.925C122.109 140.608 121.984 140.083 121.984 139.35C121.984 138.767 122.059 138.133 122.209 137.45C122.359 136.767 122.509 136.117 122.659 135.5C122.809 134.883 122.884 134.383 122.884 134C122.884 133.017 122.659 132.525 122.209 132.525C121.926 132.525 121.667 132.692 121.434 133.025C121.201 133.342 120.992 133.733 120.809 134.2C120.642 134.65 120.492 135.083 120.359 135.5C120.209 136.033 120.076 136.633 119.959 137.3C119.859 137.95 119.776 138.592 119.709 139.225C119.659 139.842 119.617 140.383 119.584 140.85H119.559C119.492 140.85 119.401 140.883 119.284 140.95C119.184 141 119.092 141.067 119.009 141.15C118.892 141.267 118.817 141.35 118.784 141.4C118.767 141.45 118.742 141.475 118.709 141.475ZM120.309 131.875C121.076 131.608 121.767 131.158 122.384 130.525C123.017 129.875 123.517 129.15 123.884 128.35C124.267 127.533 124.459 126.758 124.459 126.025C124.459 125.492 124.367 125.05 124.184 124.7C124.001 124.35 123.767 124.175 123.484 124.175C123.201 124.175 122.926 124.35 122.659 124.7C122.392 125.05 122.134 125.517 121.884 126.1C121.651 126.667 121.426 127.292 121.209 127.975C121.009 128.658 120.834 129.342 120.684 130.025C120.534 130.708 120.409 131.325 120.309 131.875ZM129.112 141C128.279 140.867 127.862 140.267 127.862 139.2C127.862 138.75 127.937 138.192 128.087 137.525C128.254 136.842 128.412 136.158 128.562 135.475C128.629 135.192 128.679 134.95 128.712 134.75C128.746 134.55 128.762 134.392 128.762 134.275C128.762 133.842 128.554 133.517 128.137 133.3C127.737 133.083 127.254 132.925 126.687 132.825C126.687 133.342 126.637 133.933 126.537 134.6C126.454 135.267 126.346 135.967 126.212 136.7C126.196 136.8 126.137 136.85 126.037 136.85C125.954 136.85 125.912 136.8 125.912 136.7C126.046 135.967 126.146 135.25 126.212 134.55C126.296 133.85 126.337 133.267 126.337 132.8C126.087 132.717 125.879 132.575 125.712 132.375C125.562 132.158 125.487 131.942 125.487 131.725C125.487 131.458 125.546 131.267 125.662 131.15C125.779 131.017 125.912 130.95 126.062 130.95C126.229 130.95 126.371 131.05 126.487 131.25C126.604 131.45 126.662 131.75 126.662 132.15V132.5C126.729 132.517 126.871 132.55 127.087 132.6C127.321 132.65 127.554 132.7 127.787 132.75C128.037 132.783 128.204 132.817 128.287 132.85C128.904 133.017 129.329 133.2 129.562 133.4C129.796 133.6 129.912 134.017 129.912 134.65C129.912 134.933 129.871 135.258 129.787 135.625C129.721 135.992 129.604 136.392 129.437 136.825C128.871 138.308 128.587 139.317 128.587 139.85C128.587 140.433 128.829 140.725 129.312 140.725C129.612 140.725 129.896 140.592 130.162 140.325C130.446 140.058 130.721 139.617 130.987 139C131.154 138.617 131.296 138.208 131.412 137.775C131.546 137.325 131.637 136.967 131.687 136.7C131.704 136.583 131.762 136.525 131.862 136.525C131.962 136.525 132.004 136.583 131.987 136.7C131.871 137.2 131.746 137.658 131.612 138.075C131.496 138.475 131.371 138.842 131.237 139.175C130.671 140.508 129.962 141.117 129.112 141ZM133.624 141.025C133.157 141.025 132.782 140.85 132.499 140.5C132.215 140.15 132.007 139.7 131.874 139.15C131.757 138.6 131.699 138.042 131.699 137.475C131.699 136.642 131.807 135.825 132.024 135.025C132.257 134.208 132.59 133.533 133.024 133C133.474 132.467 134.024 132.2 134.674 132.2C135.607 132.2 136.132 132.908 136.249 134.325L136.474 132.275C136.524 132.292 136.599 132.3 136.699 132.3C137.015 132.3 137.274 132.117 137.474 131.75C137.49 131.683 137.524 131.65 137.574 131.65C137.64 131.65 137.682 131.7 137.699 131.8L137.174 136.25C137.074 137.1 137.024 137.925 137.024 138.725C137.024 139.358 137.065 139.833 137.149 140.15C137.249 140.467 137.424 140.625 137.674 140.625C137.957 140.625 138.215 140.5 138.449 140.25C138.682 139.983 138.89 139.65 139.074 139.25C139.257 138.833 139.415 138.4 139.549 137.95C139.699 137.5 139.807 137.083 139.874 136.7C139.907 136.517 139.965 136.425 140.049 136.425C140.149 136.425 140.19 136.517 140.174 136.7C140.04 137.383 139.874 138.058 139.674 138.725C139.474 139.375 139.199 139.917 138.849 140.35C138.499 140.767 138.04 140.975 137.474 140.975C137.074 140.975 136.757 140.825 136.524 140.525C136.307 140.208 136.157 139.825 136.074 139.375C135.99 138.908 135.949 138.45 135.949 138C135.465 139.833 134.807 140.833 133.974 141C133.907 141.017 133.849 141.025 133.799 141.025C133.749 141.025 133.69 141.025 133.624 141.025ZM133.849 140.7C134.215 140.65 134.532 140.4 134.799 139.95C135.082 139.5 135.315 138.967 135.499 138.35C135.699 137.717 135.84 137.117 135.924 136.55C135.974 136.2 135.999 135.817 135.999 135.4C135.999 134.933 135.957 134.483 135.874 134.05C135.807 133.6 135.69 133.233 135.524 132.95C135.357 132.65 135.124 132.5 134.824 132.5C134.54 132.5 134.274 132.675 134.024 133.025C133.79 133.375 133.582 133.825 133.399 134.375C133.232 134.908 133.099 135.467 132.999 136.05C132.899 136.617 132.849 137.125 132.849 137.575C132.849 138.025 132.882 138.5 132.949 139C133.015 139.5 133.124 139.917 133.274 140.25C133.424 140.583 133.615 140.733 133.849 140.7ZM141.877 141.1C141.261 141.1 140.769 140.75 140.402 140.05C140.036 139.35 139.852 138.442 139.852 137.325C139.852 136.108 140.111 134.992 140.627 133.975C141.211 132.842 141.952 132.275 142.852 132.275C143.419 132.275 143.836 132.5 144.102 132.95C144.352 133.35 144.477 133.858 144.477 134.475L145.702 127.05C145.769 127.067 145.827 127.083 145.877 127.1C145.944 127.1 146.011 127.1 146.077 127.1C146.444 127.1 146.727 126.908 146.927 126.525C146.961 126.492 146.986 126.475 147.002 126.475C147.102 126.475 147.136 126.525 147.102 126.625C147.036 126.842 146.894 127.425 146.677 128.375C146.461 129.325 146.186 130.642 145.852 132.325C145.786 132.658 145.727 132.992 145.677 133.325C145.627 133.642 145.577 133.95 145.527 134.25C145.411 135.017 145.294 135.825 145.177 136.675C145.077 137.508 145.027 138.25 145.027 138.9C145.027 139.45 145.077 139.9 145.177 140.25C145.277 140.583 145.452 140.75 145.702 140.75C145.952 140.75 146.219 140.625 146.502 140.375C146.786 140.108 147.061 139.65 147.327 139C147.494 138.617 147.636 138.208 147.752 137.775C147.886 137.325 147.977 136.967 148.027 136.7C148.044 136.583 148.102 136.525 148.202 136.525C148.302 136.525 148.344 136.583 148.327 136.7C148.211 137.2 148.086 137.658 147.952 138.075C147.836 138.475 147.711 138.842 147.577 139.175C147.294 139.842 146.994 140.325 146.677 140.625C146.361 140.925 146.036 141.075 145.702 141.075C145.152 141.075 144.752 140.808 144.502 140.275C144.269 139.725 144.136 138.958 144.102 137.975C143.636 140.058 142.894 141.1 141.877 141.1ZM142.077 140.775C142.344 140.742 142.602 140.533 142.852 140.15C143.119 139.75 143.361 139.242 143.577 138.625C143.794 138.008 143.952 137.35 144.052 136.65C144.086 136.417 144.119 136.192 144.152 135.975C144.186 135.742 144.202 135.508 144.202 135.275C144.202 134.525 144.094 133.892 143.877 133.375C143.661 132.842 143.361 132.575 142.977 132.575C142.661 132.575 142.377 132.767 142.127 133.15C141.894 133.533 141.686 134.008 141.502 134.575C141.336 135.142 141.202 135.725 141.102 136.325C141.019 136.908 140.977 137.4 140.977 137.8C140.977 138.267 141.019 138.742 141.102 139.225C141.186 139.708 141.302 140.1 141.452 140.4C141.619 140.7 141.827 140.825 142.077 140.775ZM149.957 141.025C149.49 141.025 149.115 140.85 148.832 140.5C148.548 140.15 148.34 139.7 148.207 139.15C148.09 138.6 148.032 138.042 148.032 137.475C148.032 136.642 148.14 135.825 148.357 135.025C148.59 134.208 148.923 133.533 149.357 133C149.807 132.467 150.357 132.2 151.007 132.2C151.94 132.2 152.465 132.908 152.582 134.325L152.807 132.275C152.857 132.292 152.932 132.3 153.032 132.3C153.348 132.3 153.607 132.117 153.807 131.75C153.823 131.683 153.857 131.65 153.907 131.65C153.973 131.65 154.015 131.7 154.032 131.8L153.507 136.25C153.407 137.1 153.357 137.925 153.357 138.725C153.357 139.358 153.398 139.833 153.482 140.15C153.582 140.467 153.757 140.625 154.007 140.625C154.29 140.625 154.548 140.5 154.782 140.25C155.015 139.983 155.223 139.65 155.407 139.25C155.59 138.833 155.748 138.4 155.882 137.95C156.032 137.5 156.14 137.083 156.207 136.7C156.24 136.517 156.298 136.425 156.382 136.425C156.482 136.425 156.523 136.517 156.507 136.7C156.373 137.383 156.207 138.058 156.007 138.725C155.807 139.375 155.532 139.917 155.182 140.35C154.832 140.767 154.373 140.975 153.807 140.975C153.407 140.975 153.09 140.825 152.857 140.525C152.64 140.208 152.49 139.825 152.407 139.375C152.323 138.908 152.282 138.45 152.282 138C151.798 139.833 151.14 140.833 150.307 141C150.24 141.017 150.182 141.025 150.132 141.025C150.082 141.025 150.023 141.025 149.957 141.025ZM150.182 140.7C150.548 140.65 150.865 140.4 151.132 139.95C151.415 139.5 151.648 138.967 151.832 138.35C152.032 137.717 152.173 137.117 152.257 136.55C152.307 136.2 152.332 135.817 152.332 135.4C152.332 134.933 152.29 134.483 152.207 134.05C152.14 133.6 152.023 133.233 151.857 132.95C151.69 132.65 151.457 132.5 151.157 132.5C150.873 132.5 150.607 132.675 150.357 133.025C150.123 133.375 149.915 133.825 149.732 134.375C149.565 134.908 149.432 135.467 149.332 136.05C149.232 136.617 149.182 137.125 149.182 137.575C149.182 138.025 149.215 138.5 149.282 139C149.348 139.5 149.457 139.917 149.607 140.25C149.757 140.583 149.948 140.733 150.182 140.7Z" fill="black"/>
<path d="M118.673 123.871C118.668 123.794 118.636 123.722 118.582 123.668C118.528 123.614 118.456 123.581 118.379 123.577C116.357 123.46 114.734 124.075 114.036 125.226C113.575 125.987 113.576 126.912 114.03 127.794C113.772 128.102 113.583 128.461 113.476 128.849L112.841 128.211C113.146 127.573 113.135 126.908 112.802 126.356C112.286 125.505 111.096 125.048 109.618 125.135C109.542 125.14 109.47 125.172 109.416 125.226C109.361 125.28 109.329 125.352 109.325 125.429C109.237 126.907 109.694 128.097 110.545 128.612C110.826 128.784 111.149 128.875 111.478 128.875C111.798 128.871 112.112 128.795 112.398 128.653L113.375 129.63V130.75C113.375 130.833 113.408 130.912 113.466 130.971C113.525 131.03 113.605 131.062 113.687 131.062C113.77 131.062 113.85 131.03 113.908 130.971C113.967 130.912 114 130.833 114 130.75V129.598C113.999 129.101 114.168 128.618 114.479 128.231C114.881 128.441 115.327 128.553 115.78 128.559C116.219 128.56 116.649 128.441 117.024 128.213C118.175 127.516 118.792 125.893 118.673 123.871ZM110.867 128.078C110.268 127.715 109.929 126.856 109.937 125.75C111.044 125.741 111.903 126.081 112.266 126.68C112.455 126.993 112.486 127.357 112.362 127.732L111.408 126.779C111.349 126.723 111.27 126.692 111.189 126.693C111.107 126.694 111.03 126.727 110.972 126.784C110.914 126.842 110.881 126.92 110.88 127.001C110.879 127.083 110.91 127.162 110.966 127.221L111.92 128.174C111.544 128.298 111.18 128.268 110.867 128.078ZM116.7 127.679C116.176 127.996 115.561 128.02 114.936 127.757L117.033 125.659C117.09 125.6 117.12 125.522 117.119 125.44C117.118 125.359 117.086 125.281 117.028 125.223C116.97 125.166 116.892 125.133 116.811 125.132C116.729 125.131 116.651 125.161 116.592 125.218L114.494 127.312C114.23 126.687 114.254 126.072 114.572 125.549C115.117 124.65 116.408 124.15 118.062 124.188C118.099 125.841 117.599 127.134 116.7 127.679Z" fill="#16423C"/>
<defs>
<filter id="filter0_d_617_241" x="69" y="80" width="105" height="102" filterUnits="userSpaceOnUse" color-interpolation-filters="sRGB">
<feFlood flood-opacity="0" result="BackgroundImageFix"/>
<feColorMatrix in="SourceAlpha" type="matrix" values="0 0 0 0 0 0 0 0 0 0 0 0 0 0 0 0 0 0 127 0" result="hardAlpha"/>
<feOffset dy="4"/>
<feGaussianBlur stdDeviation="2"/>
<feComposite in2="hardAlpha" operator="out"/>
<feColorMatrix type="matrix" values="0 0 0 0 0 0 0 0 0 0 0 0 0 0 0 0 0 0 0.25 0"/>
<feBlend mode="normal" in2="BackgroundImageFix" result="effect1_dropShadow_617_241"/>
<feBlend mode="normal" in="SourceGraphic" in2="effect1_dropShadow_617_241" result="shape"/>
</filter>
</defs>
</svg>
